<?xml version="1.0" encoding="UTF-8" standalone="no"?>
<svg
   viewBox="0 0 78400 4096"
   fill="none"
   version="1.1"
   id="svg3"
   width="78400"
   height="4096"
   xmlns="http://www.w3.org/2000/svg"
   xmlns:svg="http://www.w3.org/2000/svg">
  <defs
     id="defs3" />
  <!-- Mark -->
  <path
     d="m 40,8 a 26,26 0 1 0 0,48"
     fill="none"
     stroke="#c4a882"
     stroke-width="5"
     stroke-linecap="square"
     id="path1" />
  <path
     d="M 20,50 L 32,14 l 12,36"
     fill="none"
     stroke="#d8dce4"
     stroke-width="2.2"
     stroke-linecap="square"
     stroke-linejoin="miter"
     id="path2" />
  <line
     x1="8"
     y1="34"
     x2="56"
     y2="34"
     stroke="#c4a882"
     stroke-width="1.2"
     id="line2" />
  <line
     x1="10"
     y1="40"
     x2="56"
     y2="40"
     stroke="#c4a882"
     stroke-width="0.8"
     opacity="0.35"
     id="line3" />
  <!-- Wordmark: ATLAS CREW — Recursive wght:350, ls:4px equiv -->
  <path
     d="M 74.218667,40 C 74.565333,38.821333 74.912,37.677333 75.241333,36.585333 H 80.008 c 0.294667,1.04 0.606667,2.08 0.884,3.102667 C 80.961334,39.930667 81.013334,40 81.169334,40 H 82.608 c -0.138666,-0.589333 -0.294666,-1.161333 -0.433333,-1.716 c -1.057333,-3.692 -2.08,-7.158667 -3.016,-10.330667 c -0.03467,-0.104 -0.06933,-0.190667 -0.208,-0.190667 H 76.264 C 75.241333,31.004 73.646667,36.706667 72.676,39.757333 C 72.624,39.913333 72.710667,40 72.814667,40 Z m 3.276,-10.885334 h 0.398667 c 0.398666,1.508 1.04,3.692 1.716,6.066667 h -3.952001 c 0.762667,-2.478667 1.404001,-4.576 1.837334,-6.066667 z M 91.911996,40 V 29.322666 h 3.397333 v -1.265333 c 0,-0.121333 -0.06933,-0.190667 -0.190667,-0.190667 h -8.268 V 29.132 c 0,0.121333 0.06933,0.190666 0.190667,0.190666 h 3.206667 v 10.486667 c 0,0.121334 0.06933,0.190667 0.190666,0.190667 z m 9.806664,0 h 6.95067 v -2.964 c 0,-0.104 -0.0867,-0.190667 -0.19067,-0.190667 h -1.31733 V 38.544 h -3.98667 V 28.057333 c 0,-0.104 -0.0693,-0.190667 -0.19066,-0.190667 h -1.456 V 39.809333 C 101.528,39.930667 101.5973,40 101.71866,40 Z m 14.13999,0 c 0.34667,-1.178667 0.69333,-2.322667 1.02267,-3.414667 h 4.76666 c 0.29467,1.04 0.60667,2.08 0.884,3.102667 c 0.0693,0.242667 0.12134,0.312 0.27734,0.312 h 1.43866 c -0.13866,-0.589333 -0.29466,-1.161333 -0.43333,-1.716 c -1.05733,-3.692 -2.08,-7.158667 -3.016,-10.330667 c -0.0347,-0.104 -0.0693,-0.190667 -0.208,-0.190667 h -2.68667 c -1.02266,3.241334 -2.61733,8.944001 -3.588,11.994667 c -0.052,0.156 0.0347,0.242667 0.13867,0.242667 z m 3.276,-10.885334 h 0.39867 c 0.39866,1.508 1.04,3.692 1.716,6.066667 h -3.952 c 0.76266,-2.478667 1.404,-4.576 1.83733,-6.066667 z m 15.30133,-1.56 c -2.46133,0 -4.14267,1.3 -4.14267,3.172 v 0.658667 c 0,1.438667 0.64134,2.374667 2.808,3.033333 l 1.68134,0.502667 c 1.47333,0.433333 1.80266,0.814667 1.80266,1.664 v 0.468 c 0,1.092 -0.91866,1.802667 -2.56533,1.802667 c -1.57733,0 -2.6,-0.312 -3.64,-1.126667 h -0.26 V 39.012 c 0,0.156 0.0173,0.208 0.104,0.294667 c 0.60667,0.606666 2.028,1.005333 3.72667,1.005333 c 2.66933,0 4.212,-1.265333 4.212,-3.224 v -0.658667 c 0,-1.577333 -0.728,-2.305333 -2.86,-2.946667 l -1.664,-0.485333 c -1.43867,-0.416 -1.768,-0.901333 -1.768,-1.802667 V 30.848 c 0,-1.178667 0.988,-1.837334 2.56533,-1.837334 c 0.79733,0 1.42133,0.121334 1.924,0.364 v 1.508 c 0,0.121334 0.0693,0.190667 0.19067,0.190667 h 1.352 V 28.82 c 0,-0.121334 -0.0347,-0.190667 -0.13867,-0.294667 c -0.55467,-0.572 -1.768,-0.970667 -3.328,-0.970667 z m 23.84266,12.792001 c 1.508,0 2.77333,-0.450667 3.41466,-1.109334 c 0.052,-0.052 0.0867,-0.121333 0.0867,-0.208 v -1.282666 h -0.27733 c -1.00534,0.762666 -1.90667,1.109333 -3.224,1.109333 c -0.884,0 -1.62934,-0.190667 -2.14934,-0.710667 c -0.58933,-0.589333 -0.832,-1.456 -0.832,-2.565333 v -3.432 c 0,-2.097334 1.07467,-3.12 2.86,-3.12 c 0.81467,0 1.47334,0.138666 2.06267,0.485333 v 1.924 c 0,0.121333 0.0693,0.190667 0.19067,0.190667 h 1.31733 v -2.738667 c 0,-0.06933 -0.0173,-0.156 -0.0867,-0.225333 c -0.58933,-0.589334 -1.73333,-1.144 -3.46666,-1.144 c -2.89467,0 -4.54134,1.785333 -4.54134,4.558666 v 3.640001 c 0,2.912 1.59467,4.628 4.64534,4.628 z M 170.07865,40 v -4.645334 h 2.028 c 0.58933,1.144001 1.16133,2.288001 1.75066,3.432001 C 174.34265,39.688 174.87998,40 175.83331,40 h 0.58934 c 0.12133,0 0.19066,-0.06933 0.19066,-0.190667 V 38.544 h -0.53733 c -0.38133,0 -0.58933,-0.121333 -0.84933,-0.606667 c -0.50267,-0.953333 -0.988,-1.82 -1.47334,-2.738667 c 1.404,-0.398666 2.21867,-1.525333 2.21867,-3.12 v -0.849333 c 0,-2.08 -1.16133,-3.362667 -3.65733,-3.362667 h -4.888 V 29.132 c 0,0.121333 0.0693,0.190666 0.19066,0.190666 h 0.84934 v 10.486667 c 0,0.121334 0.0693,0.190667 0.19066,0.190667 z m 2.25333,-10.677334 c 0.728,0 1.21333,0.173334 1.52533,0.502667 c 0.32934,0.312 0.48534,0.797333 0.48534,1.386667 v 0.832 c 0,1.248 -0.65867,1.889333 -2.01067,1.889333 h -2.25333 V 29.322666 Z M 182.95332,40 h 6.916 v -1.265333 c 0,-0.104 -0.0867,-0.190667 -0.19066,-0.190667 h -5.26934 v -3.969334 h 4.524 V 33.344 c 0,-0.121334 -0.0867,-0.190667 -0.19066,-0.190667 h -4.33334 v -3.830667 h 5.46 v -1.265333 c 0,-0.104 -0.0693,-0.190667 -0.19066,-0.190667 h -7.956 V 29.132 c 0,0.104 0.0867,0.190666 0.19066,0.190666 h 0.84934 v 10.486667 c 0,0.104 0.0867,0.190667 0.19066,0.190667 z m 12.52799,-12.133334 c 0.12133,0.572 0.29466,1.248 0.38133,1.664 c 0.676,3.310667 1.49067,7.193334 2.14933,10.261334 c 0.052,0.208 0.13867,0.277333 0.29467,0.277333 h 2.20133 c 0.50267,-1.837333 1.57734,-5.858667 2.444,-9.672 h 0.27734 c 0.84933,3.709333 1.768,7.037334 2.37466,9.394667 c 0.052,0.208 0.156,0.277333 0.29467,0.277333 h 2.20133 c 0.84934,-4.004 1.95867,-9.256 2.56534,-11.925333 c 0.0347,-0.173334 -0.0347,-0.277334 -0.19067,-0.277334 h -1.49067 c -0.728,3.518667 -1.31733,6.24 -1.99333,10.469334 h -0.364 c -0.64133,-2.912 -1.83733,-7.262667 -2.63467,-10.296 c -0.0347,-0.121334 -0.12133,-0.173334 -0.208,-0.173334 h -1.54266 c -0.78,3.033334 -1.95867,7.488 -2.652,10.469334 h -0.34667 c -0.69333,-4.038667 -1.43867,-7.505334 -2.01067,-10.244 c -0.0347,-0.138667 -0.104,-0.225334 -0.24266,-0.225334 z"
     id="text3"
     style="font-size:17.3333px;font-family:'Recursive Sans Linear Static';-inkscape-font-specification:'Recursive Sans Linear Static';letter-spacing:4;fill:#d8dce4"
     aria-label="ATLAS CREW" />
</svg>
